<svg id="Layer_1" enable-background="new 0 0 511.999 511.999" height="512" viewBox="0 0 511.999 511.999" width="512" xmlns="http://www.w3.org/2000/svg"><g><path d="m71.19 431.648h49.106v71.083l7.732 9.268h255.944l8.294-6.177v-71.77h44.298l9.433-7.144c0-24.619 0-46.555 0-48.502 0-28.453-18.217-53.325-40.216-62.38-3.085-1.195-40.002-15.492-69.01-26.726v.001l-11.123 2.671-20.518 10.044h-101.474l-17.513-12.869h-11.099l-68.824 26.879c-17.194 7.077-40.217 29.341-40.217 62.38v48.503z" fill="#fff5f5"/><path d="m298.859 273.601.001.002c-1.086-1.302-1.737-2.957-1.742-4.733l-.02-24.442-4.589-1.99h-74.807l-2.866 1.88v24.506c0 2.13-.719 3.642-1.723 4.758.001-.001.001-.001.002-.002l-.002 3.368 26.341 21.806-1.545 5.151 1.113 2.939h33.953l2.192-3.969-1.717-5.666 25.409-19.917z" fill="#fed1a3"/><path d="m256 242.437h-38.298l-2.866 1.88v24.506c0 2.13-.719 3.642-1.723 4.758l.002-.002-.002 3.368 26.341 21.806-1.545 5.151 1.113 2.939h16.978z" fill="#ffbc85"/><path d="m241.879 306.844h28.217v205.156h-28.217z" fill="#eee1dd"/><path d="m241.879 306.844h14.121v205.156h-14.121z" fill="#e1d3ce"/><g fill="#eee1dd"><path d="m283.768 322.826c2.418 3.581 7.397 4.294 10.722 1.536l42.28-35.061c-18.04-6.987-33.024-12.79-34.9-13.516-1.202-.465-2.22-1.233-3.012-2.184l-25.884 21.464c-2.893 2.399-3.495 6.602-1.392 9.716z"/><path d="m217.509 324.362c3.325 2.758 8.305 2.045 10.722-1.536l12.184-18.045c2.103-3.114 1.502-7.317-1.392-9.716l-25.909-21.485c-.44.49-.93.911-1.447 1.263l-36.625 14.304z"/><path d="m71.19 431.648h27.644c0-21.328 0-42.393 0-59.064 0-31.637 14.036-52.107 26.144-63.884l-18.758 7.326c-17.194 7.077-40.217 29.341-40.217 62.38v48.503z"/></g><path d="m365.534 65.275c-14.144-18.321-28.351-25.646-35.886-28.442-1.25-.464-1.071-2.279.247-2.478l10.463-1.576c.955-.144 1.428-1.252.854-2.029-10.316-13.975-38.992-29.595-74.223-30.75-58.985 0-80.802 29.962-83.952 44.752-.673 3.159-3.477 5.368-6.703 5.527-12.845.632-38.046 10.3-15.825 82.08l3.714 3.282h22.348v-15.109l21.784-12.019 2.253-17.857h88.251l8.93 22.492 14.423 4.979v14.231h19.23 8.322c0-21.617 8.714-36.975 15.688-45.804 4.904-6.206 4.916-15.019.082-21.279z" fill="#7b6c79"/><g><path d="m235.757 50.279c3.226-.159 6.03-2.368 6.703-5.527 2.475-11.622 16.488-32.604 50.992-41.064-8.213-2.046-17.103-3.381-26.463-3.688-58.985 0-80.802 29.962-83.952 44.752-.673 3.159-3.477 5.368-6.703 5.527-12.845.632-38.046 10.3-15.825 82.08l3.714 3.282h22.348v-15.109l21.784-12.019 2.253-17.857h.696c-2.193-34.192 14.693-39.897 24.453-40.377z" fill="#665e68"/></g><path d="m146.971 156.572c0 17.171 15.155 31.152 34.505 28.222l2.863-3.654v-48.762l-2.908-4.033c-19.292-2.891-34.46 11.022-34.46 28.227z" fill="#fed1a3"/><path d="m168.489 156.572c0-10.786 5.963-20.276 15.164-25.145l-2.222-3.081c-19.292-2.892-34.46 11.022-34.46 28.227 0 17.171 15.155 31.152 34.505 28.222l2.344-2.991c-9.303-4.852-15.331-14.405-15.331-25.232z" fill="#ffbc85"/><path d="m330.218 128.367-2.511 2.294v51.338l2.468 2.795c19.382 2.933 34.504-11.073 34.504-28.222 0-17.526-17.615-30.455-34.461-28.205z" fill="#fed1a3"/><path d="m349.225 132.064c-5.722-3.128-12.421-4.576-19.007-3.697l-2.511 2.294v51.338l2.468 2.795c7.102 1.075 13.626-.132 19.05-2.926z" fill="#ffbc85"/><path d="m391.176 426.908c-3.979 0-7.204 3.225-7.204 7.204v77.887h48.624c7.402 0 13.402-6 13.402-13.402v-71.689z" fill="#fed1a3"/><path d="m120.824 426.908h-54.822v71.69c0 7.401 6 13.402 13.402 13.402h48.624v-77.887c0-3.98-3.226-7.205-7.204-7.205z" fill="#fed1a3"/><path d="m323.272 111.991c-7.692 0-13.928-6.235-13.928-13.927 0-7.073-4.763-13.263-11.608-15.044-24.298-6.319-49.914-7.016-74.505-2.122v101.732c0 32.251 18.95 58.302 45.419 69.518 1.756.773 3.552 1.464 5.375 2.096 4.075-1.007 8.028-2.341 11.812-4.008 27.538-11.669 44.382-38.508 44.382-67.211v-64.087c0-3.837-3.111-6.947-6.947-6.947z" fill="#ffe5c1"/><path d="m268.848 250.236c-25.909-10.978-44.382-36.464-44.382-67.929 0-5.447 0-64.75 0-101.661-3.54.676-7.06 1.466-10.553 2.374-6.846 1.78-11.608 7.97-11.608 15.044 0 7.692-6.236 13.927-13.928 13.927-3.837 0-6.947 3.11-6.947 6.947v64.087c0 28.703 16.844 55.542 44.382 67.211 16.691 7.353 36.129 7.701 51.53 3.102-2.905-.868-5.746-1.892-8.494-3.102z" fill="#fed1a3"/><path d="m98.834 426.908h-32.832v71.69c0 7.401 6 13.402 13.402 13.402h19.43z" fill="#ffbc85"/></g></svg>