<svg height="512" viewBox="0 0 64 64" width="512" xmlns="http://www.w3.org/2000/svg"><g id="Flat"><g id="Color"><path d="m11 3h46v54h-46z" fill="#bf5900"/><path d="m53 17v44h-46v-54h36z" fill="#f7fcff"/><path d="m7 7v18h46v-8l-10-10z" fill="#fa0"/><path d="m53 17h-8a2 2 0 0 1 -2-2v-8z" fill="#ff7600"/><g fill="#bf5900"><path d="m44 56v-4a1 1 0 0 0 -2 0v3h-3a1 1 0 0 0 0 2h4a1 1 0 0 0 1-1z"/><path d="m17 51a1 1 0 0 0 -1 1v4a1 1 0 0 0 1 1h4a1 1 0 0 0 0-2h-3v-3a1 1 0 0 0 -1-1z"/><path d="m38 30a1 1 0 0 0 1 1h3v3a1 1 0 0 0 2 0v-4a1 1 0 0 0 -1-1h-4a1 1 0 0 0 -1 1z"/><path d="m16 30v4a1 1 0 0 0 2 0v-3h3a1 1 0 0 0 0-2h-4a1 1 0 0 0 -1 1z"/><path d="m12 22h2a5 5 0 0 0 5-5v-2a5 5 0 0 0 -5-5h-2a1 1 0 0 0 -1 1v10a1 1 0 0 0 1 1zm1-10h1a3 3 0 0 1 3 3v2a3 3 0 0 1 -3 3h-1z"/><path d="m22 10a1 1 0 0 0 -1 1v10a1 1 0 0 0 1.86.51l2.14-3.57 2.14 3.57a1 1 0 0 0 .86.49.84.84 0 0 0 .27 0 1 1 0 0 0 .73-1v-10a1 1 0 0 0 -2 0v6.39l-1.14-1.9a1 1 0 0 0 -1.72 0l-1.14 1.9v-6.39a1 1 0 0 0 -1-1z"/><path d="m35 12a2 2 0 0 1 1.49.67 1 1 0 0 0 1.51-1.34 4 4 0 0 0 -7 2.67v4a4 4 0 0 0 8 0v-2a1 1 0 0 0 -1-1h-2a1 1 0 0 0 0 2h1v1a2 2 0 0 1 -4 0v-4a2 2 0 0 1 2-2z"/><path d="m31 30v10h-2v-10a1 1 0 0 1 2 0z"/><path d="m31 46v10a1 1 0 0 1 -2 0v-10z"/><path d="m27 42v2h-10a1 1 0 0 1 0-2z"/><path d="m44 43a1 1 0 0 1 -1 1h-10v-2h10a1 1 0 0 1 1 1z"/></g><path d="m26 39h8v8h-8z" fill="#fa0"/><circle cx="30" cy="43" fill="#bf5900" r="1"/></g></g></svg>