<svg id="Capa_1" enable-background="new 0 0 512 512" height="512" viewBox="0 0 512 512" width="512" xmlns="http://www.w3.org/2000/svg"><g><g><path clip-rule="evenodd" d="m28.326 109.5h455.348c15.565 0 28.326 12.742 28.326 28.347v166.812c0 15.606-12.761 28.377-28.326 28.377h-455.348c-15.594 0-28.326-12.771-28.326-28.377v-166.812c0-15.605 12.732-28.347 28.326-28.347z" fill="#31a7fb" fill-rule="evenodd"/></g><g fill="#f8f6f6"><path d="m299.029 182.508h-26.369c-4.346 0-9.421 2.547-9.421 9.739l.088 52.311c.007 4.269 3.465 7.725 7.726 7.725h.013c4.267-.007 7.72-3.477 7.713-7.751l-.027-16.505h20.277c5.722 0 10.775-3.147 13.861-8.634 2.174-3.865 3.37-8.881 3.37-14.125.001-13.401-7.085-22.76-17.231-22.76zm-.135 30.043h-20.168l-.024-14.568h20.192c.582.556 1.913 3.013 1.913 7.283.001 4.273-1.33 6.729-1.913 7.285z"/><path d="m100.835 182.508c-4.268 0-7.726 3.464-7.726 7.738v19.412h-24.117v-19.412c0-4.274-3.459-7.738-7.726-7.738s-7.726 3.464-7.726 7.738v54.299c0 4.274 3.459 7.738 7.726 7.738s7.726-3.464 7.726-7.738v-19.412h24.117v19.412c0 4.274 3.459 7.738 7.726 7.738 4.268 0 7.726-3.464 7.726-7.738v-54.299c0-4.274-3.458-7.738-7.726-7.738z"/><path d="m173.343 182.508h-39.568c-4.268 0-7.726 3.464-7.726 7.738s3.459 7.738 7.726 7.738h12.043v46.561c0 4.274 3.459 7.738 7.726 7.738s7.726-3.464 7.726-7.738v-46.561h12.072c4.268 0 7.726-3.464 7.726-7.738.001-4.274-3.457-7.738-7.725-7.738z"/><path d="m238.873 182.508h-39.569c-4.268 0-7.726 3.464-7.726 7.738s3.459 7.738 7.726 7.738h12.073v46.561c0 4.274 3.459 7.738 7.726 7.738s7.726-3.464 7.726-7.738v-46.561h12.043c4.268 0 7.726-3.464 7.726-7.738.002-4.274-3.457-7.738-7.725-7.738z"/></g><g><path d="m351.242 239.307c-4.268 0-7.726-3.464-7.726-7.738s3.459-7.781 7.726-7.781 7.726 3.419 7.726 7.693v.088c.001 4.274-3.458 7.738-7.726 7.738z" fill="#f8f6f6"/></g><g><path d="m351.242 206.897c-4.268 0-7.726-3.464-7.726-7.738s3.459-7.781 7.726-7.781 7.726 3.419 7.726 7.693v.088c.001 4.274-3.458 7.738-7.726 7.738z" fill="#f8f6f6"/></g><g><path d="m390.544 252.284c-1.04 0-2.098-.212-3.111-.659-3.905-1.723-5.676-6.29-3.956-10.2l23.887-54.299c1.72-3.911 6.282-5.685 10.185-3.962 3.905 1.723 5.676 6.29 3.956 10.2l-23.887 54.299c-1.273 2.897-4.105 4.621-7.074 4.621z" fill="#f8f6f6"/></g><g><path d="m430.551 252.284c-1.04 0-2.098-.212-3.111-.659-3.905-1.723-5.676-6.29-3.956-10.2l23.887-54.299c1.719-3.911 6.282-5.685 10.185-3.962 3.905 1.723 5.676 6.29 3.956 10.2l-23.887 54.299c-1.273 2.897-4.105 4.621-7.074 4.621z" fill="#f8f6f6"/></g><g><path clip-rule="evenodd" d="m482.301 137.847v166.812c0 15.606-12.732 28.377-28.326 28.377h29.699c15.565 0 28.326-12.771 28.326-28.377v-166.812c0-15.606-12.761-28.347-28.326-28.347h-29.699c15.594 0 28.326 12.742 28.326 28.347z" fill="#1785f8" fill-rule="evenodd"/></g><g><path d="m376.006 401.859-44.3-46.379-16.353 14.758c-1.372 1.227-3.387.614-4.03-1.578l-6.132-80.6c0-1.111 0-1.637.263-1.9.263-.234.818-.175 1.898-.088l79.517 14.174c2.132.877 2.541 2.922 1.168 4.179l-16.295 14.817 44.3 46.379c.847.935.584 2.075-.38 2.952l-18.339 16.599-18.338 16.628c-.964.848-2.132.994-2.979.059z" fill="#fcd79f"/></g><g><path clip-rule="evenodd" d="m347.417 293.232c8.556 10.842 15.039 24.49 18.573 39.803 1.986 8.504 3.037 17.505 3.037 26.828 0 10.696-1.402 20.983-3.942 30.539l10.922 11.456c.847.935 2.015.789 2.979-.058l18.339-16.629 18.339-16.599c.964-.877 1.226-2.016.38-2.952l-31.129-32.585-13.17-13.794 16.295-14.817c1.372-1.257.964-3.302-1.168-4.179z" fill="#fac574" fill-rule="evenodd"/></g></g></svg>