<svg id="Capa_1" enable-background="new 0 0 512 512" height="512" viewBox="0 0 512 512" width="512" xmlns="http://www.w3.org/2000/svg"><g><g><g><path d="m426.403 284.228v-101.808c0-2.761-2.239-5-5-5h-98.919c-2.761 0-5 2.239-5 5v101.809h108.919z" fill="#f6a96c"/></g><g><path d="m356.081 177.42h-33.597c-2.761 0-5 2.239-5 5v101.809h33.597v-101.809c0-2.762 2.239-5 5-5z" fill="#ea9b58"/></g><g><path d="m353.448 177.42v36.046c0 1.657 1.343 3 3 3h30.991c1.657 0 3-1.343 3-3v-36.046z" fill="#fd4755"/></g><g><path d="m370.009 213.466v-36.046h-16.56v36.046c0 1.657 1.343 3 3 3h16.56c-1.657 0-3-1.343-3-3z" fill="#fb2b3a"/></g><g><path d="m290.769 284.228v-101.808c0-2.761-2.239-5-5-5h-98.919c-2.761 0-5 2.239-5 5v101.809h108.919z" fill="#f6a96c"/></g><g><path d="m220.447 177.42h-33.597c-2.761 0-5 2.239-5 5v101.809h33.597v-101.809c0-2.762 2.238-5 5-5z" fill="#ea9b58"/></g><g><path d="m217.814 177.42v36.046c0 1.657 1.343 3 3 3h30.991c1.657 0 3-1.343 3-3v-36.046z" fill="#fd4755"/></g><g><path d="m234.009 213.466v-36.046h-16.195v36.046c0 1.657 1.343 3 3 3h16.195c-1.657 0-3-1.343-3-3z" fill="#fb2b3a"/></g><g><path d="m428.863 283.229h-265.041c22.44 17.608 36.882 44.967 36.882 75.637 0 30.669-14.442 58.029-36.882 75.637h265.041c41.706 0 75.637-33.931 75.637-75.637s-33.931-75.637-75.637-75.637z" fill="#9b8e99"/></g><g><path d="m234.204 358.865c0-30.669-14.442-58.029-36.882-75.637h-33.5c22.44 17.608 36.882 44.967 36.882 75.637 0 30.669-14.442 58.029-36.882 75.637h33.5c22.44-17.608 36.882-44.967 36.882-75.637z" fill="#918291"/></g><g><path d="m428.863 308.865h-242.22c8.916 14.576 14.061 31.698 14.061 50s-5.145 35.424-14.061 50h242.22c27.5 0 50-22.5 50-50 0-27.5-22.5-50-50-50z" fill="#ffe177"/></g><g><path d="m220 308.865h-33.357c8.916 14.576 14.061 31.698 14.061 50s-5.145 35.424-14.061 50h33.357c8.916-14.576 14.061-31.698 14.061-50s-5.145-35.424-14.061-50z" fill="#ffd15b"/></g><g><path d="m36.202 150.862h22.135c1.657 0 3 1.343 3 3v119.208c13.011-6.588 27.711-10.306 43.265-10.306 15.399 0 29.96 3.646 42.874 10.112v-119.014c0-1.657 1.343-3 3-3h22.526c2.49 0 3.896-2.858 2.377-4.83l-68.4-88.829c-1.201-1.56-3.553-1.56-4.754 0l-68.4 88.829c-1.519 1.973-.113 4.83 2.377 4.83z" fill="#05e39c"/></g><g><path d="m36.202 150.862h22.135c1.657 0 3 1.343 3 3v119.208c13.011-6.588 27.711-10.306 43.265-10.306 15.399 0 29.96 3.646 42.874 10.112v-119.014c0-1.657 1.343-3 3-3h22.526c2.49 0 3.896-2.858 2.377-4.83l-68.4-88.829c-1.201-1.56-3.553-1.56-4.754 0l-68.4 88.829c-1.519 1.973-.113 4.83 2.377 4.83z" fill="#05e39c"/></g><g><g><path d="m89.008 264.04v-116.141c0-3.311 1.095-6.528 3.115-9.152l38.823-50.419-23.967-31.126c-1.201-1.56-3.553-1.56-4.754 0l-68.4 88.829c-1.519 1.973-.113 4.83 2.377 4.83h22.135c1.657 0 3 1.343 3 3v119.209c8.569-4.339 17.875-7.424 27.671-9.03z" fill="#0ed290"/></g></g><g><circle cx="426.443" cy="358.865" fill="#9b8e99" r="19.523"/></g><g><path d="m423 358.865c0-7.913 4.716-14.71 11.483-17.776-2.454-1.112-5.171-1.747-8.04-1.747-10.782 0-19.523 8.741-19.523 19.523s8.741 19.523 19.523 19.523c2.87 0 5.586-.635 8.04-1.747-6.767-3.065-11.483-9.863-11.483-17.776z" fill="#918291"/></g><g><circle cx="339.477" cy="358.865" fill="#9b8e99" r="19.523"/></g><g><path d="m336.034 358.865c0-7.913 4.716-14.71 11.483-17.776-2.454-1.112-5.171-1.747-8.04-1.747-10.782 0-19.523 8.741-19.523 19.523s8.741 19.523 19.523 19.523c2.87 0 5.586-.635 8.04-1.747-6.767-3.065-11.483-9.863-11.483-17.776z" fill="#918291"/></g><g><circle cx="252.511" cy="358.865" fill="#9b8e99" r="19.523"/></g><g><path d="m249.069 358.865c0-7.913 4.716-14.71 11.483-17.776-2.454-1.112-5.171-1.747-8.04-1.747-10.782 0-19.523 8.741-19.523 19.523s8.741 19.523 19.523 19.523c2.87 0 5.586-.635 8.04-1.747-6.767-3.065-11.483-9.863-11.483-17.776z" fill="#918291"/></g><g><g><circle cx="104.602" cy="358.865" fill="#efedef" r="97.102"/></g><g><path d="m49.796 358.865c0-46.364 32.497-85.132 75.954-94.786-6.809-1.512-13.884-2.316-21.148-2.316-53.628 0-97.102 43.474-97.102 97.102s43.474 97.102 97.102 97.102c7.264 0 14.339-.804 21.148-2.316-43.457-9.654-75.954-48.422-75.954-94.786z" fill="#e5e1e5"/></g><g><path d="m119.023 423h-28.842c-7.138 0-12.979-5.841-12.979-12.979 0-7.138 5.841-12.979 12.979-12.979h28.842c7.138 0 12.979 5.841 12.979 12.979 0 7.139-5.84 12.979-12.979 12.979z" fill="#05e39c"/></g><g><path d="m100 410.021c0-7.138 5.841-12.979 12.979-12.979h-22.798c-7.138 0-12.979 5.841-12.979 12.979 0 7.138 5.841 12.979 12.979 12.979h22.798c-7.138 0-12.979-5.84-12.979-12.979z" fill="#0ed290"/></g></g></g><g><circle cx="104.602" cy="358.865" fill="#05e39c" r="15"/></g><g><path d="m426.442 385.888c14.901 0 27.023-12.123 27.023-27.023s-12.123-27.023-27.023-27.023-27.023 12.123-27.023 27.023 12.123 27.023 27.023 27.023zm0-39.046c6.63 0 12.023 5.394 12.023 12.023s-5.394 12.023-12.023 12.023-12.023-5.394-12.023-12.023 5.394-12.023 12.023-12.023z"/><path d="m339.477 331.842c-14.901 0-27.023 12.123-27.023 27.023s12.123 27.023 27.023 27.023 27.023-12.123 27.023-27.023-12.123-27.023-27.023-27.023zm0 39.046c-6.63 0-12.023-5.394-12.023-12.023s5.394-12.023 12.023-12.023 12.023 5.394 12.023 12.023-5.394 12.023-12.023 12.023z"/><path d="m252.511 331.842c-14.901 0-27.023 12.123-27.023 27.023s12.123 27.023 27.023 27.023 27.023-12.123 27.023-27.023-12.122-27.023-27.023-27.023zm0 39.046c-6.63 0-12.023-5.394-12.023-12.023s5.394-12.023 12.023-12.023 12.023 5.394 12.023 12.023-5.393 12.023-12.023 12.023z"/><path d="m433.903 275.896v-28.896c0-4.142-3.358-7.5-7.5-7.5s-7.5 3.358-7.5 7.5v28.729h-93.919v-90.809h20.964v28.546c0 5.79 4.71 10.5 10.5 10.5h30.991c5.79 0 10.5-4.71 10.5-10.5v-28.546h20.964v27.08c0 4.142 3.358 7.5 7.5 7.5s7.5-3.358 7.5-7.5v-29.58c0-6.893-5.607-12.5-12.5-12.5h-98.919c-6.893 0-12.5 5.607-12.5 12.5v93.309h-11.716v-93.309c0-6.893-5.607-12.5-12.5-12.5h-98.918c-6.893 0-12.5 5.607-12.5 12.5v93.309h-6.346c-4.112-3.143-8.471-5.976-13.028-8.492v-37.237c0-4.142-3.358-7.5-7.5-7.5s-7.5 3.358-7.5 7.5v30.443c-11.055-3.988-22.961-6.18-35.374-6.18-12.556 0-24.602 2.226-35.765 6.3v-106.701c0-5.79-4.71-10.5-10.5-10.5h-12.99l59.255-76.954 59.255 76.954h-13.381c-5.79 0-10.5 4.71-10.5 10.5v41.138c0 4.142 3.358 7.5 7.5 7.5s7.5-3.358 7.5-7.5v-36.638h18.026c4.031 0 7.641-2.247 9.421-5.864s1.357-7.848-1.102-11.042l-68.399-88.829c-2.003-2.602-5.036-4.095-8.32-4.095s-6.316 1.493-8.319 4.094l-68.4 88.829c-2.459 3.194-2.882 7.425-1.102 11.042s5.39 5.864 9.421 5.864h17.635v109.074c-32.084 17.887-53.837 52.163-53.837 91.43 0 57.678 46.924 104.602 104.602 104.602 23.819 0 45.799-8.008 63.402-21.465h260.859c45.842 0 83.137-37.295 83.137-83.137 0-44.148-34.595-80.353-78.097-82.969zm-72.955-90.976h21.991v24.046h-21.991zm-135.634 0h21.991v24.046h-21.991zm-35.964 0h20.964v28.546c0 5.79 4.71 10.5 10.5 10.5h30.991c5.79 0 10.5-4.71 10.5-10.5v-28.546h20.963v90.809h-93.918zm-84.748 263.547c-49.407 0-89.602-40.195-89.602-89.602s40.195-89.602 89.602-89.602 89.602 40.195 89.602 89.602-40.195 89.602-89.602 89.602zm324.261-21.465h-244.961c2.896-3.366 5.577-6.92 8.033-10.637h172.065c4.142 0 7.5-3.358 7.5-7.5s-3.358-7.5-7.5-7.5h-163.848c5.804-12.995 9.052-27.372 9.052-42.5 0-15.124-3.231-29.507-9.032-42.5h228.691c23.435 0 42.5 19.065 42.5 42.5s-19.065 42.5-42.5 42.5h-29.863c-4.142 0-7.5 3.358-7.5 7.5s3.358 7.5 7.5 7.5h29.863c31.706 0 57.5-25.794 57.5-57.5s-25.794-57.5-57.5-57.5h-236.926c-2.455-3.717-5.138-7.271-8.035-10.637h244.961c37.571 0 68.137 30.566 68.137 68.137s-30.566 68.137-68.137 68.137z"/><path d="m112.102 292.936v-5.214c0-4.142-3.358-7.5-7.5-7.5s-7.5 3.358-7.5 7.5v5.214c-33.074 3.739-58.865 31.873-58.865 65.93 0 13.479 4.028 26.463 11.649 37.549 2.347 3.414 7.016 4.278 10.429 1.932 3.414-2.347 4.278-7.016 1.932-10.429-5.895-8.575-9.01-18.621-9.01-29.052 0-25.775 19.086-47.17 43.865-50.812v29.602c-8.729 3.096-15 11.432-15 21.21 0 12.407 10.093 22.5 22.5 22.5s22.5-10.093 22.5-22.5c0-9.778-6.271-18.114-15-21.21v-29.602c24.78 3.642 43.865 25.037 43.865 50.812 0 10.431-3.116 20.477-9.01 29.052-2.346 3.413-1.481 8.083 1.932 10.429 1.298.892 2.777 1.32 4.242 1.32 2.387 0 4.733-1.137 6.188-3.252 7.621-11.086 11.649-24.07 11.649-37.549-.001-34.058-25.792-62.192-58.866-65.93zm-7.5 73.429c-4.136 0-7.5-3.364-7.5-7.5s3.364-7.5 7.5-7.5 7.5 3.364 7.5 7.5-3.364 7.5-7.5 7.5z"/><path d="m119.023 389.542h-28.842c-11.292 0-20.479 9.187-20.479 20.479s9.187 20.479 20.479 20.479h28.842c11.292 0 20.479-9.187 20.479-20.479s-9.187-20.479-20.479-20.479zm0 25.958h-28.842c-3.021 0-5.479-2.458-5.479-5.479s2.458-5.479 5.479-5.479h28.842c3.021 0 5.479 2.458 5.479 5.479s-2.458 5.479-5.479 5.479z"/></g></g></svg>